/* XPM */
static char *base[] = {
/* columns rows colors chars-per-pixel */
"64 64 31 1 ",
"  c #040404",
". c gray3",
"X c #0E0E0E",
"o c gray7",
"O c #151414",
"+ c #181717",
"@ c #1B1A1A",
"# c #1E1D1D",
"$ c gray14",
"% c #282828",
"& c #2D2D2D",
"* c #333232",
"= c #393838",
"- c #403F3F",
"; c #484646",
": c #504E4E",
"> c #595757",
", c #636161",
"< c #6E6C6C",
"1 c #7B7979",
"2 c #887940",
"3 c #988748",
"4 c #A99650",
"5 c #BCA759",
"6 c #D1BA63",
"7 c #898787",
"8 c #999696",
"9 c #ABA7A7",
"0 c #BEBABA",
"q c #D4CFCF",
"w c #ECE7E7",
/* pixels */
"6666666666666666666666666666663366666666666666666666666666666663",
"6666666666666666666666666666666666666666666666666666666666666666",
"4646646664346466666666666355566664666666666666666666666664666665",
"6566566656364566666666666666666666666664666666666666666666666666",
"5666666666666665666645666446666666666666666666666656666666666656",
"6666666663644666666666666666666666666666666654666666666666666656",
"6666666666666666666666666666666666666666666666666666666666666666",
"6656666666666666666666666666666666666666666466666666466666666665",
"6666666666444666666646333666666666666666666666646636666666466666",
"4646666666666666666656466666666666666666666666666666646646666666",
"6566666666666666666646666666666666564666666666666456666566666656",
"5566666666666666666656666666666666666666446446664556643666666666",
"5566566666666665665666666666666666666446646666656566666366626665",
"6666566665666666666666665666464666666666666666666636666666664666",
"3663546663666666666666666664666666666666666666665566666666666666",
"5656546666666666666666666666666666666666666666666666665556656666",
"6666666665654345546666666666666666666656554456566666666666666666",
"5566656465663666666666666666665556666655655565666666666666666665",
"6565666666666666666632355544466666666666666666666666666666666666",
"6666666666666666666666666666666666666655566666666666666666666666",
"6666666666655555556666666556654566665555566444666665556555555666",
"5455555555566666655666666666666666666665656566666665655566666666",
"#+@##############@@####################@@@++@#################@#",
"q09qq0qwwwwq@wwwwqq0wwwww#wwwwwwwwwwww#wwwqqqwwwwww#wwwwwwwwwwqw",
"qwwwwwwwwwwq@wwqq0w0q0www#wwwwwwwwwwww#wqwwwwqqwwww#wwwwwwwwwwqq",
"wwwww8wqwqqw@wqwqwwwqqqqw#wwwwwwwwwwwq@q0qwqqwwwwww#qwwwwwwwwwwq",
"9wwwwwwww00w+qqwwwww0qwwq#wwwwwwwwqqqw#wq90wwwwwwwq+<qwwwwqqqwww",
"wwwwwwwwwww0@wqwwwwwwqwww#wwwwwwqqwwqq@qwwqwwwwwqwq@qwwwwwqwwqww",
"w9wwww9ww0wq@wwwwwqwwwwww#wqq0qqwwwwww#wwwwwwwwwqwq#wwqqwwwwwqww",
"wwwwww0wwwwq@0wwwwwwwwwqq@qqqwwwwwwwww#wwwwwwww0wwq@0qwqwwwwqwww",
"wqwwww0wwwq0#w0wwwwwwwwww#wwwwwwwwwwww@wwwwwwwwqwww#qwwwwww1wwww",
"wwwwwwwwwwwq#wqqqwqwwwwww#wwwwqqqqqqqq@00wwwwqwwwww#qqwwwwwwwwww",
"wwwwwwwwwww0+qqwwwwq0wqwq@qqqqwwwwwwww#q0wwwww0qwww@wqwwwwqwwwww",
"qqwww88wwwwq@q0wwww0wwwwq@0qwwwwwq0009@www9wwwwqwww#wwwwqqwwwwww",
"wqw9wwwwwww9@00ww8ww0qq00+qqqqqq0qqwww+00qwwww0qqww#wwqwqqwwwwww",
"wqww9ww90w0q#w0qwwwwq00qq@qqqqqqwwwwww#wwqqqqqwqqww#wwwqwwwwwwww",
"###++OO++@O+@@++O@+#######@@@#################@@@@@+##@@+@+#####",
"wwq008w7qqqq#wqq0qqqwwwwq@wwwwwwwwwwww#wwwwwwwwwwqq+qqqq0wwwwwww",
"w0wq9wwwwwwq#wqw0qww0qqqw#wwwwwwwwqwww#wwwwwqqqqqqq+qqqqw9qwwwqw",
"wwwwwwwwqwqq#wwqw9wqqwwww#wwwwwwwq0qqq@qqqqqwwwwwww#qwwww00www0w",
"qqqqwwwqwwqq#wwqwww0wqqqq@qqqqqww00qqq#wwwwwwwwwwww#qqqqwqqww00w",
"qwwqwwwwwqwq#wwqwwwwwwwww#wwwqqwwqwwww#wwwwwwwwwwww#wwwwwwqqwq0q",
"wwwww00w0qqw#wwwwwwwwwwww@qqwwwwwwwwww#wwqqqqwwwwqq#wwwwwwwwwq0w",
"wwwwq0wwqqww#wwwqqw9wqqqq#wwwwwwwwwwww#qqwwwwqwwwwq#wwwwwwwwwwwq",
"wwwwww0wqwww#wwwwqw0wwwww#wwwwwww9wwwq@qqqqwww9wwwq#wqqqqqwwww00",
"wwwwwwwq0www#wwqqww0wqwqq@qqwwqq0wwwwq@qwwwww0wwwq0@qqqwwwqwwwww",
"wwwwwwwww0qq#qqwwwwwwwwww#wwwwwwqww9wq@0wwww0ww000q@wwwwqwwwwwww",
"wqwwqwwwwwwq@qwwwwwwwqwww#wwwwwwwwwwqq@q00qww0wqwww#wwwwqwwww9ww",
"w0wwwwwwwqww#qqqwwqqwqwww#qqqqqqq9qwwq@09qqwwwwwwww#wwwqqwwwwwwq",
"q0wwwwwwwqww#wqqqwq0qqwww@qqwwwww9qqwq@wqqwwwwwwwww#wwwq0qqq8w8q",
"@O+oO###########@@@@@@###########O@+@#################@@@@@oooO@",
"q9qwwwwwwwww#wwwwqqq00wqq@qqwwwww80qqq@qq0qqqqqqqqq@qwwwww0ww89q",
"9qqwwwwwwwww#wwq0wwwq0qww#wqwwwqqqqwww#wwwqwwwwwwww#wwwqqqwwww9q",
"wwwwwwwwwwwq@00q0www0qqww#qwwwwwwwqqww#wwwqwwwwwqqq@qw9ww0wwwwqq",
"qwwwwwwwwqqq@0w0wqwwqwwww#qwwwwwwwwwww@qwq00qwqqwww#wwwwwwwww80w",
"qqwwwwwqqqqqO9wwwwwwwwwww@qwwwwqqwwqq0+0ww900wqwww0O0w9w0wwwww0w",
"w0wwwq0qqwq9O0wwwwwwwwwwq#wqwqwqwww000+0wwqwqwqwwqw@0ww0wwwwwwww",
"w00wqqwwqqq0@0wwwwqwwwwwq@qqwww0wwwwwq@qwwwwwwwwwww#qqw0wwwww0ww",
"wq0wwwwwqwwq@qwwwwwwwwww9o0qwwwwwqqwwq@qwwwwqwqwwww#90qw0wwww0ww",
"ww9wqwwwwwqq@qwwqwq0q0qq0+00qqqqqwwwww@qwwwwwwq0qqq@9w0w9wqqqqww",
"q00qwq7qqqq0O8717<8789990+990q00090098+9900099qq000+q08q9qq8qqq9",
"91108810971<X188889098909o8988qqqq9090+0qqqq9977179o<118<1><<<11",
"8=*;,,>,;>,<.,>>>>,:11<,1X<::,><>>,,>: ;;-=*%$&*==* ,>:;;:=:>7<>",
"&:,,:,<<<<><X1<<7<11,>:;:.>>,,>>11<<,>.:-:;:,188<1>.>::,;>1<,,70"
};
