/* XPM */
static char *bloc_wall[] = {
/* columns rows colors chars-per-pixel */
"64 64 72 1 ",
"  c #150A00",
". c #1B0E00",
"X c #1E1000",
"o c #101010",
"O c gray7",
"+ c #151414",
"@ c #181717",
"# c #1B1A1A",
"$ c #1E1D1D",
"% c #221200",
"& c #261500",
"* c #2B1800",
"= c #301B00",
"- c #361F01",
"; c #3D2302",
": c #282828",
"> c #343333",
", c #7E1003",
"< c #442703",
"1 c #4C2C04",
"2 c #553105",
"3 c #5F3706",
"4 c #563C1C",
"5 c #6A3E07",
"6 c #0F5800",
"7 c #116200",
"8 c #136D00",
"9 c #167A00",
"0 c #5D411D",
"q c #66451E",
"w c #6F4B1E",
"e c #78511F",
"r c #7D5D34",
"t c #484646",
"y c #484747",
"u c #504E4E",
"i c #595757",
"p c #5A5959",
"a c #636161",
"s c #6E6C6C",
"d c #7B7979",
"f c #8C1204",
"g c #9C1405",
"h c #887940",
"j c #988748",
"k c #A99650",
"l c #BCA759",
"z c #D1BA63",
"x c #D5C072",
"c c #898787",
"v c #999696",
"b c #ABA7A7",
"n c #B3AFAF",
"m c #BEBABA",
"M c #D9C680",
"N c #C4C0C0",
"B c #C9C6C6",
"V c #D4CFCF",
"C c #D2D0D0",
"Z c #D8D3D3",
"A c #DBD7D7",
"S c #DEDBDB",
"D c #E1DEDE",
"F c #E4E1E1",
"G c #ECE7E7",
"H c #EDE9E9",
"J c #EEEBEB",
"K c #EFEDED",
"L c #F1EFEF",
"P c #F3F1F1",
"I c #F4F2F2",
"U c #F6F4F4",
/* pixels */
"zzzzzzzzzzzzzzzzzzzzzzzzzzzzzzjjzzzzzzzzzzzzzzzzzzzzzzzzzzzzzzzj",
"zzzzzzzzzzzzzzzzzzzzzzzzzzzzzzzzzzzzzzzzzzzzzzzzzzzzzzzzzzzzzzzz",
"kzkzzkzzzkjkzkzzzzzzzzzzzjlllzzzzkzzzzzzzzzzzzzzzzzzzzzzzkzzzzzl",
"zlzzlzzzlzjzklzzzzzzzzzzzzzzzzzzzzzzzzzkzzzzzzzzzzzzzzzzzzzzzzzz",
"lzzzzzzzzzzzzzzlzzzzklzzzkkzzzzzzzzzzzzzzzzzzzzzzzlzzzzzzzzzzzlz",
"zzzzzzzzzjzkkzzzzzzzzzzzzzzzzzzzzzzzzzzzzzzzlkzzzzzzzzzzzzzzzzlz",
"zzzzzzzzzzzzzzzzzzzzzzzzzzzzzzzzzzzzzzzzzzzzzzzzzzzzzzzzzzzzzzzz",
"zzlzzzzzzzzzzzzzzzzzzzzzzzzzzzzzzzzzzzzzzzzkzzzzzzzzkzzzzzzzzzzl",
"zzzzzzzzzzkkkzzzzzzzkzjjjzzzzzzzzzzzzzzzzzzzzzzkzzjzzzzzzzkzzzzz",
"kzkzzzzzzzzzzzzzzzzzlzkzzzzzzzzzzzzzzzzzzzzzzzzzzzzzzkzzkzzzzzzz",
"zlzzzzzzzzzzzzzzzzzzkzzzzzzzzzzzzzlzkzzzzzzzzzzzzklzzzzlzzzzzzlz",
"llzzzzzzzzzzzzzzzzzzlzzzzzzzzzzzzzzzzzzzkkzkkzzzkllzzkjzzzzzzzzz",
"llzzlzzzzzzzzzzlzzlzzzzzzzzzzzzzzzzzzkkzzkzzzzzlzlzzzzzjzzzhzzzl",
"zzzzlzzzzlzzzzzzzzzzzzzzlzzzkzkzzzzzzzzzzzzzzzzzzzjzzzzzzzzzkzzz",
"jzzjlkzzzjzzzzzzzzzzzzzzzzzkzzzzzzzzzzzzzzzzzzzzllzzzzzzzzzzzzzz",
"lzlzlkzzzzzzzzzzzzzzzzzzzzzzzzzzzzzzzzzzzzzzzzzzzzzzzzlllzzlzzzz",
"zzzzzzzzzlzlkjkllkzzzzzzzzzzzzzzzzzzzzlzllkklzlzzzzzzzzzzzzzzzzz",
"llzzzlzkzlzzjzzzzzzzzzzzzzzzzzlllzzzzzllzlllzlzzzzzzzzzzzzzzzzzl",
"zlzlzzzzzzzzzzzzzzzzjhjlllkkkzzzzzxxzzzzzzzzzzzzzzzzzzzzzzzzzzzz",
"zzzzzzzzzzzzzzzzzzzzzzzzzzzzzzzzzzxxzzlllzzzzzzzzzzzzzzzzzzzzzzz",
"zzzzzzzzzzzlllllllzzzzzzzllzzlklzzMzlllllzzkkkzzzzzlllzllllllzzz",
"lklllllllllzzzzzzllzzzzzzzzzzzzzxzxzzzzlzlzlzzzzzzzlzlllzzzzzzzz",
"$@#$$$$$$$$$$$$$$##$$$$$$$$$$$$$$>$$$$$###+@#$$$$$$$$$$$$$$$$$#$",
"VmbVVmVGGGGV#GGGGVVmGGGGG$GGGGGGGHGGGH$GGGVVVGGGGGG$GGGGGGGGGGVG",
"VGGGGGGGGGGV#GGVVmGmVmGGGyGHGGHKLHHHHH$GVGGHHZZGGGH$GGGGGGGGGGVV",
"GGGGGvGVGVVG#GVGVGGGVVVVG>HKLPKPKKKHHV#VmVHSFHHHHGG$VGGGGGGGGGGV",
"bGGGGGGGGmmG@VVGGGGGmVGGVpPIPIPKKKVVVG$GVnCLHHHHHGV+sVGGGGVVVGGG",
"GGGGGGGGGGGm#GVGGGGGGVGGKyKKPHHGAVGGVV#VHHDHHHHHVGV#VGGGGGVGGVGG",
"GbGGGGbGGmGV#GGGGGVGGGHHHyHSSBZZHGGGGG$GGGGGHHGHVGV$GGVVGGGGGVGG",
"GGGGGGmGGGGV#mGGGGGGGGHZZ#ZVVGHHGGGGGG$GGGGGGGHNVGV#mVGVGGGGVGGG",
"GVGGGGmGGGVm$GmGGGGGGGGGG$GHGGGGGGGGGG#GGGGGGGG-;*;<;;;*GGGdGGGG",
"GGGGGGGGGGGV$GVVVGVGGGGGG$GGGGVVVVVVVV#mmGGGGVG*<<2;*.*<mGGGGGGG",
"GGGGGGGGGGGm@VVGGGGVmGVGV#VVVVGGGGGGGG$VmGGGGGv--5125<22GGVGGGGG",
"VVGGGvvGGGGV#VmGGGGmGGGGV#mVGGGGGVmmmb#GGGbGGGG--52wq5<<mVGGGGGG",
"GVGbGGGGGGGb#mmGGvGGmVVmm+VVVVVVmVVGGG@mmVGGGGm--533w2<-mVGGGGGG",
"GVGGbGGbmGmV$GmVGGGGVmmVV$VVVVVVGGGGGG$GGVVVVVG<;325e5-=VGGGGGGG",
"$$$@@++@@#+@##@@+#+$$$$$$$###$$$$$$$$$$$$$$$$$#2155w55&=@#@$#$$$",
"GGVmmvGcVVVV$GVVmVVZGGGGV#GGGGGGGGGGGG$GGGGGGGG-252e23=&mGGGGGGG",
"GmGVbGGGGGGV$GVGmVGGmVVVG#GGGGGGGGVGGG$GGGGGVVV-155433<&GbVGGGVG",
"GGGGGGGGVGVV$GGV1*1532211;GGGGGGGVm*;;198999999=<533351.1=-VGGmG",
"VVVVGGGVGGVV$GGV=%%;1<*; %VVVVVGGmm%=*=*==87787%<523335-%%-vmmmG",
"VGGVGGGGGVGV$GGV;<355335*1VGGVVGGVG*122122186683325323352-5VGVmV",
"GGGGGmmGmVVG$GGG;;553325<-mVGGGGGGG;2525252979e35335q333511GGVmG",
"GGGGVmGGVVGG$GGV=123q155<*GGGGGGGGG=<<35551523323353q3335<1GGGGV",
"GGGGGGmGVGGG$GGm=22213221&GGGGGGGbG=*1253123<135555r251251<GGGmm",
"GGGGGGGVmGGG$GGV;21312535*VVGGVCmGG;=23353553222333w25225-<GGGGG",
"GGGGGGGGGmVV$VVG<2121w35<;GGGGGGVGG;<55555533323112w52515=1GGGGG",
"GVGGVGGGGGGV#mGG*11113ee<.VGGGHHGGG%<q55w3555213553w<5525=2GGbGG",
"GmGGGGGGGVGG==;;X231255e0 *gfg<211- <555532212w53352<3235-1VVVVV",
"VmGGGGGGGVGG==<;<31<<25501%g,f;;<1;%<33555533e51232133223=<VvVvV",
"#+@O+$$$$$$$**1122123<35333g,f12355255555553321553332125512OOO+#",
"VbVGGGGGGGGG=%;3555w4;<2535gf3553355523322233533352332555-;VGvbV",
"bVVGGGGGGGGG*&35333w3255322331q22323133355555335513331535;;GGGbV",
"GGGGGGGGGGGV;*333332221212111w2<2233555553333333353522355-<GGGVV",
"VGGGGGGGGVVV;;5332232211221221133323333322333355553225555;1GGvmG",
"VVGGGGGVVVmm<<123555q25535333333335533322355235553113555511GGGmG",
"GmGGGVmVVmmb;*155q33125235553355322222232q2253353320w5355-1GGGGG",
"GmmGVVGGVmmv-*;212413532222355ww233553223e55532223253e355*1GGmGG",
"GVmGGGGGVGGm;*=1213we32233323222w223<1233w3333555133e2535%1GGmGG",
"GGbGVGGGGGVbX%<3333522222555322q2ww<2233235555555w3<13535 ;VVVGG",
"VmmVGVcVVVVb%=1533w2325312q32353333ww3555533w333332--1253%*vVVVb",
"vddmvvdmbcds&*<2231<12533331333333353ww235333333552-<3355.;sssch",
"s>>yaaiayias****1<;<**;;<;<11;;<;<;<<;2<;<1211<<<;11;1111%%upcsi",
":yiiuasssaua=;=%XXXX&*==*=**&&X%.%****&&*--*%%%%%%***&&;;%$saacv"
};
