/* XPM */
static char *blood_well[] = {
/* columns rows colors chars-per-pixel */
"64 64 76 1 ",
"  c gray1",
". c #040404",
"X c #060606",
"o c #070707",
"O c #090909",
"+ c #0B0B0B",
"@ c #0C0C0C",
"# c #0E0E0E",
"$ c #101010",
"% c gray7",
"& c #151414",
"* c #181717",
"= c #191919",
"- c #1B1A1A",
"; c #1E1D1D",
": c #360A07",
"> c #3C0C08",
", c #241609",
"< c #28190A",
"1 c #2D1C0C",
"2 c #33200E",
"3 c #392410",
"4 c #383219",
"5 c #202020",
"6 c #242222",
"7 c gray14",
"8 c #282828",
"9 c #2D2C2C",
"0 c #2D2D2D",
"q c #333232",
"w c #393838",
"e c #430E09",
"r c #5E150E",
"t c #691810",
"y c #751B12",
"u c #402812",
"i c #482D15",
"p c #503318",
"a c #59391B",
"s c #473F20",
"d c #403E3E",
"f c #403F3F",
"g c #63401E",
"h c #4F4624",
"j c #584E28",
"k c #6E4822",
"l c #62572D",
"z c #6D6133",
"x c #7A6C39",
"c c #484343",
"v c #484646",
"b c #514B4B",
"n c #504E4E",
"m c #5B5454",
"M c #595757",
"N c #636161",
"B c #6E6C6C",
"V c #7B7979",
"C c #821E14",
"Z c #912217",
"A c #A2261A",
"S c #B52B1D",
"D c #CA3021",
"F c #E13625",
"G c #FA3D2A",
"H c #887940",
"J c #988748",
"K c #A99650",
"L c #BCA759",
"P c #D1BA63",
"I c #898787",
"U c #999696",
"Y c #ABA7A7",
"T c #BEBABA",
"R c #D4CFCF",
"E c #ECE7E7",
/* pixels */
"LLLPPLJPPPPPPPPPPPPPPPPPPPPPPPPKPPPPJKLPLPPPPLLLPPPPPPPPPPPPPPPP",
"PPPPPPPPPPPPPPLLPPPPLLKPPPPKKPPPPPPPPPPPPPPPPPPPPPPPPPLPKLPKPPPP",
"PPKKKPPPPPPPPKPPPPPPPPKPPPPPPPPPPPPPPPPPPPLPPPPPPPPPPPPPPPPPLPLP",
"PLPPPPPPPPPPPPPPPPPPPPPPLLPPPPPPPPPPPJPPPPLPPPPPPPPPPPKKPPPPKPPP",
"PPPPPPPPPJPPPPPPPPPPPPPPPPPPPPPPPPPPPPPPPPPPPPPPPPLPHPPPLPPPPPPP",
"PPPPPPPJPPPPPPPPPPPPPPPPPPPPLPKKKPLLLPPPPPPPPPPPPPPPJPPPLPPPPPPP",
"PPPPPPPPPKPPPPPPPPPPPPPPPPPPPPPPPPPPPPPPPPPPPPPPPPPPPPPPPPPPPPPP",
"PPPPPPPPPPPPPPPPPPPPPPPPPPPPLPLLPPPPPPPPLPPPPLPPPPLPPPPLPPPJPPPL",
"PPPPPPPPPPPPPPPPPPPPPKPJJPPPPPPPPPPPPPPPPPPPLPKPPPPPPPKKPPPJPPPL",
"PPPPLPJPPPPPPLPPLPPLPPKPPPPPPPPPPPPPPPPPPPPPPPPPPPPPPPPPPPPPPPKL",
"PLPPPPPPPPLPPPPPPPPPPPPPPPPPPPPPPPPPPPPPPPPJPHPPPKLPPPPPPPPLPPPP",
"PLPPPPPPPPPPPPPPPPPPPPPLKKPPLPPPPPPPPPPPPPPPPPPLPPPPPPPPPPPJPPPK",
"LPPPPKPPPPPPPPPLPPPPPPPPPPPPPPPPPPPPPPPPPPPPPPPPLPPPPPPPPPPPPPPL",
"LLPLPPPPPPPPPPPPPPPPPPPPPPPPPPPPPPPPPPPLLLLLLLLLKHPPPPPPPPPPPPPP",
"JPPPPPPPPPPPPPPPPPPPPPPPPPPPPPPPPPPPPPPPPPPKPPKPPPPLLPPPPPPPPPPP",
"PPPPPPPPPPLPPPPPPPPLPPPPPPPPPPPPPPPPPPPPPPPLPPPPPPPPPPPPPPPLPPPP",
"PPPPPPPPPPPLPPPPPPPPPPPPPPPPLKPPLLLLPPPKKKKLLLLPPPPPPPPPPPPPPPPP",
"PPPPPPPPPPPPLPPPPPPPPPPPPPPPPPPLPLLPPLLPLLPLPLPPPPPPPPPPPPLPPPPL",
"PPPPPPPPPPPPPLLLPPPPPPPPPPPPPPLPPPLKKLLLLJJHHHKPPLPPPPPPPPPPPPPL",
"PKPPPPPPPPPPKPPPPPPPPPLLPPPPPLLPPLKJKJJxKLKKKLLLKHKKPPPPPPPPPPKK",
"PPLLKKPPPPLLLPLPPPPPPPPLLJKPPKJKJHKJLKKJJJHJJLLPPLJLLJKPLLLLLPPP",
"PKLLPPPPPJjlzlHLPPPPPPPKxhlhHJLLLJJJLLPPPPLLJKKKJKLLLxKzlJLLPPPP",
";*-;ddddw8-o zhjpaappkakggLKk3aLKaJgaaippggpgaagkPkKkkgg#$&-;;-;",
"RTYRRTRERYBq.5d4JiiB,222iaiiipJaupaippppBzJai2iHgaa3lu3aMMIREERE",
"REYEYYEEEERB#mvapIlzhhs<,1BpakIapa3uuuu3upizuaaaagkaaggnMVYEEERT",
"YTEEEEEEEEER%UUnaapiiapii3232333Jagap2iiupaiaJaixNpaxjUIIYTRRRRT",
"YEEEIRTEETEE-EUUBnwnwwfwvoaipipapszJkBzaagiu3iilJpaHlNBTRETRREEE",
"TEEEYEEEEEER-ERRYTRUYYUIV@mBn3piawvjJxxzxupuazpgaap#NVYEETYTTTEE",
"EEIEEEEEEERE-EERRREEETRRT-TUIMMBNBnBzzgJujj3ujjzxpM#VYEEUINRRYEE",
"EEEUEEEERETE-TEEERTREERRR-RRRRRINnBVvv7IppxHNMBMgBU%REETIq8MYYEE",
"EEEEEEEEUYEE;ETEEEERRRREE;EERRREERYTYV6MgjkzRVMNIIT-EEEUU77fUTEE",
"ETEEEEEEETEEmEEERREEEEEEE;EERETRTRRRTTcUNxklfvNUTEE;EEEUINNBIREE",
"ETEEEEEEEEEEmRREETREEEERR-RRRRRREEEEEEbUVBNBIUYTEEE;EEEYUYIIYEEE",
"EREETEEEEERRmEEEEEREEEEER-RREEEEERTTTY-EERRVEEEEEEE;EEERYYYYEEEE",
"EREYTYTYTTYY-TTEEEEREERRR-RRRRRRTRREEE*TTREYUYTREEE;EEEERTTEEEEE",
"EREYYTRYTETR;ETRYYTRRERRR-RRRRRREEEEEE;EERRRRRERREE;EEEEEEEEEEEE",
";;;**&&*ddddw;-*&-*--;;;;;---;;;;;;;;;d;;;;;;;------;;;;;;;;;;;;",
"EERTTUYIRRRR;ERRTRTYRYYTR-EEEEEEEEEEEEdEEEEEEEEEERR-RRRRREEEEEEE",
"ETTRYRYYRRRR;ERETRYVqnUYT;EEEEEEEEREEE;EEEEERRRRRRR-RRRREEEEEERE",
"ERRRREEEEERR;EEREEIv-;;nV-EEEEEEERTRRR-RRRRREEEEEEE;EEEEEEEEEETE",
"RRRRTEEEEGGR;EEGEYRM*@#wI&RRRREEEETRRR;EEEEEEEEEEEE;EEEEEEEERTTE",
"REEFTEEGGRFR;EEGEERYMvwNY-EEEREEEEREEE;EEEEEEEEEEEE;EEEEEEERERTE",
"EEEFGGFREDFFFFFFGGFFFFFTR-RRREEEEEEEEE;EEEEEERTTRRR;EEEEEEREEEEE",
"EEEFRERFTDFR-EEGFFFFFFTRRdEEEEEEEEEEEE;RREEEEREREER;EEEEEEEEREEE",
"EEEGTFFFFFFT*RDGDFSFFEEEEdEEEEEEEETERR-RREEREEEEEER;ERRRREEETEEE",
"EEEEFFFEFFFF&FSFSDAEEERERdRRRRREEEERRR-REEEEEEEEERTdRRREEEREEEER",
"EEEFFYRFFRGFDSFFSSZSYTEEEdEEEEEEEEEYRR-TEEEEEEEETTRdEEEEEEEEEEER",
"EFFFFTFFEFDSSADFAZADFFGEEdEEEEEEEIEERR-REEERETEEEEEdEEEERTREEEEE",
"FYFFSFFFEFCCZySFAAIGFRREEdRRRRRRRYRTER-TYEEEEEEEEEEdEEERRRRREEEE",
"RTYIFEFFSFSDAtSAAAUTFYRRRwRREEEEEYRRER-ERREEEEEEEEEdEEERTRRRYUUR",
"-&*$FDDDFDZCtrSAS%SFF*&---;;;;;;;&-*-;;;;;;;;;;;ddddddd----%%mm-",
"RYRFGADSDDFGFSSZDRFFFFDDGGGREEEEEUTRRR-RRTRRRRRRRRRdRERTRRTIEEYR",
"YRRDDZSDSDFEGDDSDTYFFTDER;EREEERRRREEE;EEEREEEEEEEEdEEREREEUEEYR",
"TERSDCSAFDRF-ADSFYFFTFVSF-TEEEEEEERREE;EEEREEEEERRR-RTYETEEEEERR",
"REFSDSSZSSRG&DFFFFFEFFUTRGFEEEEEEEEEEE-RRREERRRREEE;ETUYEEEBEEEE",
"RRDFZSDASAGRDFFTFFFRFFERT&EEEEERRRRRRT*TTTEETRRTTTT&TYYTEEEEEEEE",
"ETDDCDFASYFYGDFSFFEFFFGGR;ERREEEEETTTT*TTTREETRRRRT-TYYTEEEEEEEE",
"ETDDTFDSDSRFDDDRFFFEGGGGR-RRTETETTERRR-REEEEEREEEEE;RRETURIBRRRE",
"RRFDRFSSDDRTwTYEFRFRRERTT*TREEEEEERERR&YYREETTTRRRR-YTRRYEVEEEEE",
"RTFRDRFFSDRRdREEFFYERRRER-RRRERRREERRY&YYTTYRERREEE-UYYRRTRRUREE",
"YIFYFTFDDDETdTUIYYTUTRTTT*TTTTYUYYYTYY-TTYRRRRYYYTT-YRYYERURIUYI",
"NVVVFVFDNSBU9VYIIISUSYYYY#NMMBVIVBVVIB#BIUYUYIUUURR-UUUUUTRRTYIY",
"nq8w90FF8vMf.dwvnf>e:wvvv.nnqnnwvnnMfNOwvvvNMnMMnVVOBnNNnnvvwvnN",
"VBBNMVFFVVVV#BBBIAyrtAYBB@BNNNBNMMNNNMOMnnnvnMMNNMvovNBMMMIBNNBI"
};
