/* XPM */
static char *fuck_wall[] = {
/* columns rows colors chars-per-pixel */
"64 64 55 1 ",
"  c black",
". c #040404",
"X c #070707",
"o c #080300",
"O c #0B0500",
"+ c gray3",
"@ c #090909",
"# c #0C0C0C",
"$ c gray5",
"% c #160A00",
"& c #101010",
"* c gray7",
"= c #151414",
"- c #181717",
"; c #1B1A1A",
": c #1E1D1D",
"> c #321B00",
", c #381E00",
"< c #202020",
"1 c gray14",
"2 c #282828",
"3 c #2D2D2D",
"4 c #333232",
"5 c gray22",
"6 c #393838",
"7 c #573000",
"8 c #613600",
"9 c #6C3C00",
"0 c #403F3F",
"q c #414041",
"w c #484646",
"e c #494849",
"r c #504E4E",
"t c #525152",
"y c #595757",
"u c #636161",
"i c #6E6C6C",
"p c #7B7979",
"a c #FF2A00",
"s c #A65E00",
"d c #B96900",
"f c #CE7500",
"g c #887940",
"h c #E58300",
"j c #FF9200",
"k c #988748",
"l c #A99650",
"z c #BCA759",
"x c #D1BA63",
"c c #898787",
"v c #999696",
"b c #ABA7A7",
"n c #BEBABA",
"m c #D4CFCF",
"M c #ECE7E7",
/* pixels */
"xxxxxxxxxxxxxxxxxxxxxxxxxxxxxxkkxxxxxxxxxxxxxxxxxxxxxxxxxxxxxxxk",
"xxxxxxxxxxxxxxxxxxxxxxxxxxxxxxxxxxxxxxxxxxxxxxxxxxxxxxxxxxxxxxxx",
"lxlxxlxxxlklxlxxxxxxxxxxxkzzzxxxxlxxxxxzzzzxxxxxxxxxxxxxxlxxxxxz",
"xzxxzxxxzxkxlzxxxxxxxxxxxxxxxxxxxxxxxxxkzzzxxxxxxxzzxxxxxxxxxxxx",
"zxxxxxxxxxxxxxxzxxxxlzxxxllxxxxxxxxxxxzzxxxxxxxxxxzxxxxxzxxxxxzx",
"xxxxxxxxxkxllxxxxzzxxxxxxxxxxxxzxxzzzzxxxxxxzlxxxxxxxxxxxxxxxxzx",
"xxxxxxxxxzzzzzzzzxxxxxxxxxxxxxzzzzxxxxxxxxxxxxxxxxxxxxxxxxxxxxxx",
"xxzxxxxxxzxxxxxxxxxxxxxxxxxxxzxxxxxxxxxxxxxlxxxxxxxxlxxxxxxxxxxz",
"xxxxxxxxxzlllxxxxxxxlxkkkxxxzxxxxxxxxxxxxxxxxxxlxxkxxxxxxxlxxxxx",
"lxlxxxxxzxxxxxxxxxxxzxlxxzzzxxxxxxxxxxxxxxxxxxxxxxxxxlxxlxxxxxxx",
"xzxxxxxxzxxxxxxxxxxxlxxxzxxxxxxxxxzxlxxxxxxxxxxxxlzxxxxzxxxxxxzx",
"zzxxxxxxxxxxxxxxxxxxzxxxxxxxxxxxxxxxxxxxllxllxxxlzzxxlkxxxxxxxxx",
"zzxxzzxxxxxxxxxzxxzxxxxxxxxxxxxxxxxxxllxxlxxxxxzxzxxxxxkxxxgxxxz",
"xxxxzzxxxzxxxxzxxxxxxxxxzxxxlxlxxxxxxxxxxxxxxxxxxxkxxxxzxxxxlxxx",
"kxxkzkxxxkxzzzxxxxxxxxxxxxxlxxxxxxxxxxxxxxxxxxxxzzxxxxxzzxxxxxxx",
"zxzxzlxxxzzxxxxxxxxxxxxxxxxxxxxxxxxxxxxxxxxxxxxxxxxxxxzzzxxzxxxx",
"xxxxxxzzzzxzlklzzlxxxxxxxxxxxxxxxxxxxxzxzzllzxzxxxxxxxxxxzzxxxxx",
"zzxxxlxlxzxxkxxxxxxxxxxxxxxxxxzzzxxxtttzxztttzxxxxxxxxxxxxxxxxxz",
"xzxzxxzxxxxxxxxxxxxxkgkzzzlllxxxxxtttjtxxxejjttxxxxxxxxxxxxxxxxx",
"xxxxxxzxxxxxxxxxxxxxxxxxxxxxxttttxtjhhtzztehjjtxxxxxxxxxxxxxxxxx",
"xxxxxxzxxxxzzzzzzzxxxxxxxzzxttjhtxtjhhtzzthhhttxxxxzzzxzzzzzzxxx",
"zlzzzzlzzzzxxxxxxzzxxxtttxxxtjfjtxxthhtztjfhhtxxxxxzxzzzxxxxxxxz",
":-;::::::::::::::;;:::tje:::thett::thhe;tjfhhh:::::::::::::;::;;",
"mnbmmnmMMMMm;MMMMmmnMMMth:MMejeMMMMtfhtMtjfeehMMMMm;MMmnMnbMmnbM",
"mMMMMMMMMmMm;ttmtttnmnMtftMmejeMMMMthjjejhftMhmMMMM:mMmmbbnnpbmm",
"MMMMMvMmmvnMtttMtjtMmmmtfttMtjeMMMMtjhjthhetmfMMMMM:mnmmnbcvpnMm",
"bMMMMMMm6crqjjttthttnmMejetMtjetMMmtjhjjhjtMMhMMMMm-inMMnbbbmmmm",
"MMMMMMmi@1.7hjjtMejtMmMtjetMtjhtmmMMtfjjhttMMmMMmMm;mMmmmnnMMmMM",
"MbMMMMbu..o,djttMthttMMtjtMmthjtMMMMthhhjetMMMMMmMm:MMmmMMmmMmmM",
"MMMMMMnp. O8fjtMMtjhtMMttttmthhtMMMMthjhjhtMMMMnMMm;nmMmMMMMmMmM",
"MmMMMMtq8%>9qtnMMtjjeMMMejtMMtftMMMMthjethjtMMMmMMM:mMMMMMMimmMM",
"MMMMMMtjhfsetMmmmMejetMMejtMMtfttmmmmejhttjttmMMMMM:mmMMMmmMMMMM",
"MMMMttjhhhtt=mmMMMehhtmMehtmttjftMMMMehhttjhqtnmMMM;MmMMMMmMMMMM",
"mmMtjjhjjttm;mntMMejfeMMehttMtjftmnnntjfttejffttMMM:MMMMmmMMMMMM",
"MmMtthhjttMb;ntttvthj6mnehhemtthtmmMMMtfeetehdhttMM:MMmMmmMMMMMM",
"MmMMejhjtMnm;tthtMtejqnmehhqmmthhtMMMMtfhqmtehfjtMM:MMMmMMMMMMMM",
":::;tjjhjttteqfht;;thjq:ejhq;:thjjt:::tehq;:tteht;;-::;;-;-:::::",
"MMmnnjhhjjteddhjtmmthjeeejjeMMthjjtMMM:teeMMMttjMmm-mmmmnMMMMMMM",
"MnMnjtjfjjjjhjtttmMthjhhqjjtMMMtejjtMM:tMmMMmmmhmmm-mmmmMbmMMMmM",
"MMMmhjhjfjhhjttmMbMtjjhfjhjjMMMMetttmm;mmmmmMMMfMMM:mMMMMnnMMMnM",
"mmmmmhhtjfjjetMmMMMntjhfhhjjnmmMMbntmm:MMMMMMMMfMMM:mmmmmmmMMnnM",
"mMMmhmhtjjfhhttmMMMMtjhjhhqhmmmMMnMMMM:MMMMMMMMfMMM:MMMmMmmmMmnm",
"MMMMhbhMtjhhjhttMMMMttthjeqjfMMMMmMMMM:MMmmmmMmfMmm:mMMmMmMMMmnM",
"MMMMmbfMmtjjjhjtmmMbMmttt;MffMMMMMMMMM:mmMMMMmmfMMm:mMMmMmMMMMMm",
"MMMMMmhMmtjjhjjjtmMnMMMMM:mdmMMMMbMMMm;mmmmMMMbMMMm:mmnmmnMnMMnn",
"MMMMMmhmnMtjhhjjttMnMmMmm;mfmMmmnMMMMm;mMMMMMnMMMmn;nmmMMmmnMMMM",
"MMMMMmfmMntjjhfjjtMMMMMMM:MjnMMMmMMbMm;nMMMMnMMnnnm;mMMMmmMnMMMM",
"MmMMmMhmMMMttjfhttMMMmMMM:MMMMMMMMMMmm;mnnmMMnMmMMM:mMMMmmMnMbMM",
"MnMMMMMMMmMMjjtemMmmMmMMM:mmmmmmmbmMMm;nbmmMMMMMMMM:mMMmmmmmMMMm",
"mnMMMMMMMmMMjetmnMmnmmMMM;mmMMMMMbmmMm;MmmMMMMMMMMM:MmMmnnnmvMvm",
";==*-:::::::he::;;;;;;:::::::::::=;;;::::::::::::::::;;;;--***=;",
"mbmMMMMMMMMnhMtMMmmmnnMmm;mmMMMmMvbmmm;mmnmmmmmmmmm;mMMMMmnMMvbm",
"bmmMMMMMMMMMjMtmnMMMmnmMM:MmMMmbbvbnMM:MMMmMMMMMMMM:MMMmmmMMMMbm",
"MMMMMMMMMMMm;nnmnMMMnmmMM:mMMMmie4tpnM:MMMmMMMMMmmm;mMbMMnMMMMmm",
"mMMMMMMMMmmm-nMnMmMMmMMMM:mMMMmw2@<qvM;mMmnnmMmmMMM:MMMMMMMMMvnM",
"mmMMMMMmmmmm=bMMMMMMMMMMM;mMMMmu1##ecn=nMMbnnMmMMMn=nMbMnMMMMMnM",
"MnMMMmnmmMmb-nMMMMMMMMMMm:MmMmncr3epvn-nMMmMmMmMMmM;nMMnMMMMMMMM",
"MnnMmmMMmmmn;nMMMMmMMMMMm;mmMMmvvcvbnm;mMMMMMMMMMMM:mmMnMMMMMnMM",
"MmnMMMMMmMMm;mMMMMMMMMMMb=nmMMMMMbvmmm;mMMMMmMmMMMM:bnmMnMMMMnMM",
"MMbMmMMMMMmm-mMMmMmnmnmmn-nnmmmmmMMMMM;mMMMMMMmnmmm;bMnMbMmmmmMM",
"mnnmMmcmmmmn=vcpcivcvbbbn-bbnmnnnbnnbv-b5hhjjhjmnnn-mnvmbmmvmmmb",
"bppnvvpnbcpi*pvvvvbnbvbnb*vbvvmmmmbnbn-n5jffhh4apcb*ippvipyiiipp",
"v64euuyuwyui#ueeyyurppiup#irruyiyyuuyrX05jhfhh4a564.uyrwwr6ryciy",
"3ruueujuiuyujjuicuiiuyrwr@yjuuyyppiiuy@r5hjjjhhvijj@yrruwypiuucn"
};
